<?xml version="1.0" encoding="utf-8"?>
<!-- Generator: Adobe Illustrator 19.2.0, SVG Export Plug-In . SVG Version: 6.00 Build 0)  -->
<!DOCTYPE svg PUBLIC "-//W3C//DTD SVG 1.1//EN" "http://www.w3.org/Graphics/SVG/1.1/DTD/svg11.dtd">
<svg version="1.1" id="Layer_16" xmlns="http://www.w3.org/2000/svg" xmlns:xlink="http://www.w3.org/1999/xlink" x="0px" y="0px"
	 width="700px" height="300px" viewBox="0 0 700 300" style="enable-background:new 0 0 700 300;" xml:space="preserve">
<g>
	<path style="fill:none;" d="M246.1,277.6h-7.5v14.3h6.7c5.5,0,9-2.1,9-7.1C254.2,279.8,250.7,277.6,246.1,277.6z"/>
	<polygon style="fill:none;" points="430.3,282.6 443.2,282.6 436.8,262.9 	"/>
	<path style="fill:none;" d="M276.1,262.5c-6.4,0-10.8,4.9-10.8,15c0,9.9,4.4,14.8,10.8,14.8c6.7,0,10.8-4.9,10.8-14.9
		C286.9,267.4,282.6,262.5,276.1,262.5z"/>
	<path style="fill:none;" d="M332,263h-4.3v28.9h4.6c5.9,0,12-2.6,12-14.7C344.3,264.8,337.9,263,332,263z"/>
	<path style="fill:none;" d="M437.6,90.3c0.3,0.3,0.6,0.8,1,1.1c4.7,3.4,11.9,3.9,18.4,3.3c0.5-7.8-0.8-15.4-6.3-20.7
		C440.3,64,425.9,79.9,437.6,90.3z"/>
	<path style="fill:none;" d="M252.7,269.4c0-4.5-3.3-6.3-9-6.3h-5.1v12.6h7.2C249.9,275.6,252.7,273.3,252.7,269.4z"/>
	<path style="fill:none;" d="M312.9,269.8c0-4.5-2.5-6.8-9.1-6.8h-5.3v13.9h5.8C309.7,276.9,312.9,274.8,312.9,269.8z"/>
	<path style="fill:none;" d="M611.9,101.8c-14.1-3.6-10.8,28.3-9.2,34.9c1.5,6,4.5,11.9,8.7,16.5c2.3-4.5,3.8-9.3,4.7-13.2
		C618.5,126.3,620.8,104.1,611.9,101.8z"/>
	<path style="fill:none;" d="M383,102.9c0-0.1-9.2-2.5-10.2,13.2c-1,13.4-0.5,31,11.4,39.9c2-5.1,2.5-9.3,3.2-13.2
		c1.3-7,1.5-12.6,1.8-19.8C389.6,117.4,390.2,104.8,383,102.9z"/>
	<path style="fill:none;" d="M337.5,44.1c0.4-4.7,0.2-13.2-1.7-17.7c-0.9-2-2.6-2.7-4.5-2.9c-0.2,0-0.4,0-0.6,0
		c-8.1,0.4-12.2,16-14.2,22c-4.2,12.3-6.7,25.1-8.8,37.8c-3.6,20.9-5.2,42.9-3,64.4c14.3-19.1,19.8-41.9,25.4-64.8
		C333.1,70.1,336.3,57.3,337.5,44.1z"/>
	<path d="M165.9,201.2c-2.2-19.4-2.5-39,0-58.3c3.4-28,12.7-55.5,28.8-78.7c5.9-8.6,13.2-15.8,22.2-21.3c2.6-1.6,4.2-4.4,3.9-7.4
		c-0.5-5.7-6.9-7.4-14.2-5.6c-14.8,3.8-27.6,19.1-36.1,30.9c-8.6,12.1-15.2,25.5-19.7,39.7c-8.4,25.9-10.7,59.9-9.5,86.9
		c0.1,0.4,0.1,0.9,0.1,1.3c-17.8-31.8-32.2-81.1-14.8-165.9c0.5-3-0.4-5.8-2.4-7.9c-1.1-1.5-2.6-2.7-4.4-3.4
		c-1.5-0.5-3.1-0.9-5.1-0.8c-3.3,0.2-6.4,2.2-8.1,5.1C88,47.7,41.7,64.6,6,59.8c-1-0.1-1.9-0.1-2.8,0.3c-2.5,1.1-3.1,2.7-2.7,4.2
		c2.3,8.5,23.2,9.7,30.2,10c11.9,0.6,23.8-1.1,35.1-4.9c11.5-3.9,22.3-9.7,32.1-16.9c-4.2,34.6-8.9,126.3,49,182.9
		c0.8,0.8,1.5,1.3,2.5,1.6c2.2,2.2,5.2,3.4,8.4,3.3c0.5,0,1.1,0,1.6-0.1c10.2-1.1,10.9-11.2,9.6-21.3
		C168.2,212.1,166.3,205.2,165.9,201.2z"/>
	<path d="M541.9,85.4c3.7,1.5,8,1.6,11.5-0.5c3-1.8,5.6-4.6,6.6-8c1.2-4.4-0.8-9.4-4.4-12.1c-3.8-2.7-8.8-3.1-13-1.4
		c-3.2,1.3-6,3.9-7.3,7.1C532.7,77.2,536.5,83,541.9,85.4z"/>
	<path d="M699,85.8c-0.2-2-0.3-4.1-0.6-6.1c-0.8-6.3-2-15.3-10.1-15.4c-9.2-0.1-9.3,9.2-8.8,15.4c0.6,11.9,1.6,24.6-0.4,36.1
		c-2.5,14.3-8.6,29.5-20.3,38.8c-8.3,6.6-19.1,9.8-29.3,8.2c0.3-0.1,1.7-2.2,2-2.7c0.9-1.3,1.5-2.7,1.9-4.1
		c3.7-9.9,5.9-20.4,6.1-30.8c0.1-7.1-0.6-14.1-2.3-21c-0.1-0.4-0.2-1-0.3-1.4c-0.4-1.6-1-3.3-1.7-4.9c-8.1-17.8-27.9-19.4-40.4-8.6
		c-11.4,9.8-13.9,25.8-12.6,40c1.2,12.9,4.5,26.4,13.4,36.3c1,1.1,2,2.2,3.1,3.2c-2.3,1.5-5,2.7-7.8,3.4c-0.8,0.2-1.6,0.3-2.4,0.3
		c-2,0.1-4.1,0-6.1-0.4c-2.9-0.6-5.7-1.8-8.1-3.4c-3.3-2.3-6.1-5.3-8.4-8.7c-3.2-5-5.4-10.5-6.9-16.2c-1-3.8-1.7-7.5-2.4-11.3
		c-0.6-4.5-1.5-9.4-1.2-14c0-3.8,0.5-7.5,0.4-11.2c0-4.5-3.8-8.3-8.3-8.3c-4.1,0-7.5,2.9-8.2,7c-1.8,11.2-4.3,26.9-12.9,35.1
		c-5.8,5.5-14.1,7-21.9,7.3c-0.6,0-1.4,0-2,0c-0.1-6.5,0.5-13,1.6-19.3c1.6-9.2,1.2-19.4-3.8-27.3c-5.8-9.3-16-9.8-25.8-8.8
		c-0.1-4.7-0.5-8.8-1.3-12.5c-2.9-13.8-14.7-24.3-28.8-24.8c-2.2-0.1-4.2,0.1-6,0.4c-11.6,2-20,12-21.1,23.7
		c-0.8,7.8,2.4,13.9,6.5,18.5c0.3,0.4,0.6,0.9,1,1.2c7.8,8.1,18.3,12.3,29.1,12.3c-2.4,8.2-5,16.5-8.5,24.4
		c-3.1,7-7.3,15.5-13.4,20.6c-4.9,4-11.5,6.7-17.7,7.9c-0.5,0.1-1,0.1-1.5,0.2c-4.1,0.1-7.8-0.1-11.1-0.6c1.5-5.3,4-15.5,4.1-16
		c2.5-12.5,5.1-25.3,3.8-38.2c-2.7-25.7-28.5-33.2-43.9-20c-11.4,9.8-13.9,25.8-12.6,40c1.2,12.9,4.5,26.4,13.4,36.3
		c3.3,3.8,7.2,7,11.4,9.7c-7.1,21.2-18.1,42.7-36.4,42.9c-8.5,0.1-15.1-7.4-19.4-14.8c-6.1-10.3-10.5-21.5-13.5-33
		c6.9-5.3,12.2-12.7,17.1-20.4c7.7-12,13.4-25,17.1-38.7c6.4-23.2,12.8-48.8,13.6-73c0.2-7-0.2-14.1-2.9-20.5
		c-5.9-13.8-22.9-17-35.4-10.7c-12.7,6.6-19.6,20.7-24.1,33.6c-4,11.4-6.4,23.4-8.8,35.2c-5.5,27.3-6.5,56.8-1.2,84.6
		c-0.2,0-0.4,0-0.8,0c-14.7-1.1-19.6-20.2-21.3-32.1c1-3.2,1.6-6.7-0.2-9.5c-1.6-2.5-6.9-4-9.8-3.4c-3.8,0.9-5.9,4.7-7.7,8.2
		c-2.4,4.9-4.6,9.8-7,14.7c-4.3,8.9-9.2,18.4-18,23c-3.4,1.7-7.4,2.6-11,1.3c-4.4-1.5-7.3-5.9-8.4-10.6c-2.4-10.7,1.5-21.5,8.4-29.5
		c8.7-10.2,22.1-17.6,35.6-18.5c4.3-0.3,8.7,0,12.7,1.7c2.4,1.1,4.9,2.7,7.3,1.9c5.9-1.9,2.8-7.2-0.6-10.7c-1-1-1.9-1.8-2.8-2.5
		c-7-5-17.4-6.1-25.7-5.7c-6.9,0.4-13.8,2.3-19.9,5.4c-21.7,11-37.9,36.1-33.6,60.3c1.3,7.5,5.9,15,12.3,19.8
		c8.4,6.5,20.2,8.2,30,4.5c7-2.6,12.9-7.7,17.6-13.5c3.4-4.3,6.9-8.9,10-13.8c1.6,5.4,4.3,10.6,8.3,15.1
		c7.2,8.3,18.3,12.2,29.1,11.3c0.4,1.3,0.8,2.6,1.2,3.9c7.9,23.7,20.2,54.1,48.8,55.5c26.6,1.3,45.3-27.1,56.4-55.1
		c1.1,0.2,2.2,0.5,3.2,0.6c12.2,2.2,25-0.1,35.9-6c0.3-0.2,0.8-0.4,1.1-0.6c0,0,0,0,0.1-0.1c1.1-0.6,2.4-1.4,3.7-2.4
		c0,0,0.1,0,0.1-0.1c3.3-2.5,6.4-5.2,9.1-8.2c11.2-12.3,17.7-28.5,22.1-44.3c1.4-4.9,2.4-9.5,3-13.7c6.3-0.4,11.6,1,13,7.9
		c1.8,9.3-1.2,20.8-1.3,30.4c-0.1,11.2,1.3,22.4,4.6,33.1c6.1,19.4,19.7,37,38.4,45.1c2.5,1.1,5.2,1.9,7.9,1.6
		c2.7-0.3,5.3-2.5,5.4-5.3c0.1-5.7-5.5-8.4-9.4-11c-4.7-3.2-8.9-7.1-12.6-11.5c-8.3-9.9-13.3-22-15.5-34.7
		c12.9,1.6,25.5-1,35.9-10.1c0.6-0.5,1.2-1.1,1.7-1.7c4,14.2,11.2,27.5,23.9,34.3c18.2,9.7,37.1,5.4,50.9-7c18,6.9,39.3,4,55.7-7.9
		c19.4-14.1,26.4-40,27.5-62.8C699.8,101.3,699.7,93.5,699,85.8z M307.5,83.4c2.2-12.7,4.6-25.5,8.8-37.8c2-6,6.1-21.6,14.2-22
		c0.2,0,0.4,0,0.6,0c1.9,0.2,3.7,0.9,4.5,2.9c1.9,4.5,2.2,12.9,1.7,17.7c-1.2,13.2-4.4,26-7.5,38.8c-5.6,22.9-11.1,45.7-25.4,64.8
		C302.4,126.3,304,104.3,307.5,83.4z M389.2,122.9c-0.3,7.2-0.5,12.8-1.8,19.8c-0.8,3.9-1.2,8.1-3.2,13.2
		c-12-8.8-12.4-26.5-11.4-39.9c1.1-15.6,10.2-13.3,10.2-13.2C390.2,104.8,389.6,117.4,389.2,122.9z M457,94.7
		c-6.6,0.5-13.7,0.1-18.4-3.3c-0.3-0.3-0.6-0.8-1-1.1C425.9,79.9,440.3,64,450.8,74C456.3,79.3,457.6,86.9,457,94.7z M616.3,140.1
		c-1,3.9-2.5,8.6-4.7,13.2c-4.2-4.6-7.2-10.5-8.7-16.5c-1.6-6.6-5-38.5,9.2-34.9C620.8,104.1,618.5,126.3,616.3,140.1z"/>
	<path d="M249,276.5c3.5-0.6,6-2.9,6-7.2c0-5.5-4.3-8.2-11.6-8.2h-7.1v32.8h8.9c7.1,0,11.4-3,11.4-9
		C256.6,279.2,253.1,276.8,249,276.5z M238.6,263h5.1c5.7,0,9,1.8,9,6.3c0,4-2.8,6.3-6.9,6.3h-7.2V263z M245.2,291.9h-6.7v-14.3h7.5
		c4.7,0,8.2,2.2,8.2,7.3C254.2,289.8,250.8,291.9,245.2,291.9z"/>
	<path d="M276.1,260.6c-7.8,0-13.2,6.1-13.2,17c0,10.9,5.4,16.8,13.2,16.8c8.1,0,13.2-6.1,13.2-16.9
		C289.3,266.4,283.9,260.6,276.1,260.6z M276.1,292.4c-6.4,0-10.8-4.9-10.8-14.8c0-10.1,4.4-15,10.8-15c6.6,0,10.8,4.8,10.8,15
		C286.9,287.5,282.8,292.4,276.1,292.4z"/>
	<path d="M315.3,269.8c0-5.7-3.6-8.8-11.4-8.8h-7.7v32.8h2.3v-15h7.1l8.6,15h2.8l-9.1-15.4C312.5,277.3,315.3,274.8,315.3,269.8z
		 M304.2,276.9h-5.8V263h5.3c6.6,0,9.1,2.4,9.1,6.8C312.9,274.8,309.7,276.9,304.2,276.9z"/>
	<path d="M331.8,261.1h-6.4v32.8h6.7c6.6,0,14.5-3,14.5-16.7C346.7,263.7,339.1,261.1,331.8,261.1z M332.3,291.9h-4.6V263h4.3
		c5.9,0,12.3,1.8,12.3,14.2C344.3,289.3,338.1,291.9,332.3,291.9z"/>
	<polygon points="356.3,277.8 368.1,277.8 368.1,275.8 356.3,275.8 356.3,263 370,263 370.3,261.1 354,261.1 354,293.9 370.6,293.9 
		370.6,291.9 356.3,291.9 	"/>
	<polygon points="381.7,261.1 379.4,261.1 379.4,293.9 395.2,293.9 395.5,291.8 381.7,291.8 	"/>
	<polygon points="405.2,277.8 417.1,277.8 417.1,275.8 405.2,275.8 405.2,263 418.9,263 419.2,261.1 403,261.1 403,293.9 
		419.5,293.9 419.5,291.9 405.2,291.9 	"/>
	<path d="M435.4,261.1l-11.1,32.8h2.3l3-9.2h14.2l3,9.2h2.4l-11.1-32.8H435.4z M430.3,282.6l6.5-19.7l6.4,19.7H430.3z"/>
	<path d="M473,283.6c0,5.3-2.4,8.8-8.2,8.8c-5.8,0-8.3-3.4-8.3-8.8v-22.5h-2.3v22.7c0,6.2,3.3,10.6,10.5,10.6
		c7.1,0,10.5-4.5,10.5-10.6v-22.7H473V283.6z"/>
</g>
</svg>
