<svg xmlns="http://www.w3.org/2000/svg" width="50" height="50" viewBox="-298.2 372.2 50 50">
  <path d="M-253.2 385.7h-13v-3.2h13v3.2zm-20 13.2c1 1 1.4 2.3 1.4 4.2s-.5 3.7-1.4 5c-.6 1-1.4 2-2.2 2.6-1 1-2.2 1.3-3.7 1.6s-3 .4-5 .4h-14.7v-32h15.6c4 0 6.7 1.5 8.4 3.7 1 1.4 1.4 3 1.4 5 0 1.8-.6 3.4-1.5 4.7-.5.6-1.4 1.3-2.4 2 1.4.4 2.7 1.3 3.5 2.6zm-17.6-5.7h6.8c1.4 0 2.5-.3 3.3-.8s1.3-1.5 1.3-3c0-1.4-.6-2.5-1.8-3-1-.3-2.2-.5-3.8-.5h-6v7.3h.2zm12 9.4c0-1.8-.5-3-2-3.5-.8-.3-2-.5-3.2-.5h-7v8.8h6.8c1.4 0 2.5-.2 3.3-.6 2-.6 2.8-2 2.8-4zm30.4-5c.2 1 .2 2.3.2 4.4h-17c.3 2.5 1 4 2.5 5 1 .6 2 .8 3.3.8 1.4 0 2.5-.3 3.3-1 0-.4 1-1 1-1.7h6c0 1.5-1 2.8-2 4-2 2.4-5 3.5-9 3.5-3 0-5.7-1-8-3-2.5-2-3.6-5-3.6-9s1-7 3.2-9.5c2-2 5-3.2 8-3.2 2 0 4 .4 5.5 1 1.7 1 3 2 4 3.7s1.8 3 2 5zm-6 .4c-.3-1.5-.7-3-1.7-3.6-1-1-2.8-1.4-4-1.4-1.7 0-2.8.6-3.8 1.4-.8 1-1.4 2-1.6 3.4h10.4v.4z" class="st1"/>
</svg>
