<?xml version="1.0" encoding="utf-8"?>
<!-- Generator: Adobe Illustrator 19.1.0, SVG Export Plug-In . SVG Version: 6.00 Build 0)  -->
<!DOCTYPE svg PUBLIC "-//W3C//DTD SVG 1.1//EN" "http://www.w3.org/Graphics/SVG/1.1/DTD/svg11.dtd">
<svg version="1.1" id="Layer_1" xmlns="http://www.w3.org/2000/svg" xmlns:xlink="http://www.w3.org/1999/xlink" x="0px" y="0px"
	 viewBox="-586 372 50 50" style="enable-background:new -586 372 50 50;" xml:space="preserve">
<path d="M-540.7,386h-13v-3.2h13V386L-540.7,386z M-560.7,399.2c1,1,1.4,2.3,1.4,4.2s-0.5,3.7-1.4,5c-0.6,1-1.4,2-2.2,2.6
	c-1,1-2.2,1.3-3.7,1.6s-3,0.4-5,0.4h-14.7v-32h15.6c4,0,6.7,1.5,8.4,3.7c1,1.4,1.4,3,1.4,5c0,1.8-0.6,3.4-1.5,4.7
	c-0.5,0.6-1.4,1.3-2.4,2c1.4,0.4,2.7,1.3,3.5,2.6L-560.7,399.2z M-578.3,393.5h6.8c1.4,0,2.5-0.3,3.3-0.8s1.3-1.5,1.3-3
	c0-1.4-0.6-2.5-1.8-3c-1-0.3-2.2-0.5-3.8-0.5h-6v7.3H-578.3z M-566.3,402.9c0-1.8-0.5-3-2-3.5c-0.8-0.3-2-0.5-3.2-0.5h-7v8.8h6.8
	c1.4,0,2.5-0.2,3.3-0.6c2-0.6,2.8-2,2.8-4L-566.3,402.9z M-535.9,397.9c0.2,1,0.2,2.3,0.2,4.4h-17c0.3,2.5,1,4,2.5,5
	c1,0.6,2,0.8,3.3,0.8c1.4,0,2.5-0.3,3.3-1c0-0.4,1-1,1-1.7h6c0,1.5-1,2.8-2,4c-2,2.4-5,3.5-9,3.5c-3,0-5.7-1-8-3c-2.5-2-3.6-5-3.6-9
	s1-7,3.2-9.5c2-2,5-3.2,8-3.2c2,0,4,0.4,5.5,1c1.7,1,3,2,4,3.7s1.8,3,2,5L-535.9,397.9z M-541.9,398.3c-0.3-1.5-0.7-3-1.7-3.6
	c-1-1-2.8-1.4-4-1.4c-1.7,0-2.8,0.6-3.8,1.4c-0.8,1-1.4,2-1.6,3.4h10.4v0.4L-541.9,398.3z"/>
</svg>
