<?xml version="1.0" encoding="utf-8"?>
<!-- Generator: Adobe Illustrator 19.1.0, SVG Export Plug-In . SVG Version: 6.00 Build 0)  -->
<!DOCTYPE svg PUBLIC "-//W3C//DTD SVG 1.1//EN" "http://www.w3.org/Graphics/SVG/1.1/DTD/svg11.dtd">
<svg version="1.1" id="Layer_1" xmlns="http://www.w3.org/2000/svg" xmlns:xlink="http://www.w3.org/1999/xlink" x="0px" y="0px"
	 width="50px" height="50px" viewBox="0 0 50 50" style="enable-background:new 0 0 50 50;" xml:space="preserve">
<style type="text/css">
	.st0{fill:#5E5E5E;}
</style>
<path class="st0" d="M27.5,25L49.4,3.1c0.8-0.6,0.8-1.8,0-2.5c-0.6-0.8-1.8-0.8-2.5,0L25,22.5L3.1,0.6c-0.6-0.8-1.8-0.8-2.5,0
	c-0.8,0.6-0.8,1.8,0,2.5L22.5,25L0.6,47c-0.8,0.6-0.8,1.8,0,2.5C0.9,49.9,1.3,50,1.8,50s0.9-0.1,1.3-0.5L25,27.6l21.9,21.9
	c0.4,0.4,0.8,0.5,1.3,0.5s0.9-0.1,1.3-0.5c0.8-0.6,0.8-1.8,0-2.5L27.5,25z"/>
<g>
</g>
<g>
</g>
<g>
</g>
<g>
</g>
<g>
</g>
<g>
</g>
<g>
</g>
<g>
</g>
<g>
</g>
<g>
</g>
<g>
</g>
<g>
</g>
<g>
</g>
<g>
</g>
<g>
</g>
</svg>
