<svg version="1.1" id="Flickr2" xmlns="http://www.w3.org/2000/svg" xmlns:xlink="http://www.w3.org/1999/xlink" x="0px" y="0px"
             viewBox="108.2 371.8 50 50" width="50" height="50" style="enable-background:new 108.2 371.8 50 50;" xml:space="preserve">
        <path d="M155.5,374.5c-1.8-1.8-4-2.7-6.6-2.7h-31.3c-2.6,0-4.8,0.9-6.6,2.7c-1.8,1.9-2.7,4.1-2.7,6.6v31.2c0,2.6,0.9,4.8,2.7,6.6
            c1.8,1.8,4.1,2.7,6.6,2.7h31.2c2.6,0,4.8-0.9,6.6-2.7c1.8-1.8,2.7-4,2.7-6.6v-31.3C158.2,378.5,157.3,376.3,155.5,374.5L155.5,374.5
            z M129,401.6c-1.3,1.4-3,2-4.9,2s-3.5-0.7-4.9-2c-1.3-1.3-2-3-2-4.8c0-1.9,0.7-3.5,2-4.9c1.3-1.3,3-2,4.9-2c1.9,0,3.5,0.7,4.9,2
            c1.3,1.3,2,3,2,4.9C130.9,398.7,130.3,400.3,129,401.6L129,401.6z M147.3,401.6c-1.3,1.4-3,2-4.9,2c-1.9,0-3.5-0.7-4.9-2
            c-1.3-1.3-2-3-2-4.8c0-1.9,0.7-3.5,2-4.9c1.3-1.3,3-2,4.9-2c1.9,0,3.5,0.7,4.9,2c1.3,1.3,2,3,2,4.9
            C149.3,398.7,148.6,400.3,147.3,401.6L147.3,401.6z" class="st1"/>
</svg>