<?xml version="1.0" encoding="utf-8"?>
<!-- Generator: Adobe Illustrator 19.1.0, SVG Export Plug-In . SVG Version: 6.00 Build 0)  -->
<!DOCTYPE svg PUBLIC "-//W3C//DTD SVG 1.1//EN" "http://www.w3.org/Graphics/SVG/1.1/DTD/svg11.dtd">
<svg version="1.1" id="Layer_1" xmlns="http://www.w3.org/2000/svg" xmlns:xlink="http://www.w3.org/1999/xlink" x="0px" y="0px"
	 viewBox="-538.3 372.3 50 50" style="enable-background:new -538.3 372.3 50 50;" xml:space="preserve">
<path d="M-531.7,372.3h37.1c3.4,0,6.2,2.6,6.2,6.4v37.2c0,3.8-2.9,6.4-6.4,6.4h-37.1c-3.6,0-6.4-2.6-6.4-6.3v-37.3
	c0-3.7,2.9-6.3,6.4-6.3H-531.7z M-501.8,377.8c-1.4,0-2.4,1-2.4,2.3v5.4c0,1.2,1,2.3,2.3,2.3h5.6c1.2,0,2.2-1,2.2-2.3v-5.4
	c0-1.2-1-2.3-2.2-2.3h-5.6H-501.8z M-494,393.4h-4.4c0.4,1.3,0.6,2.8,0.6,4.3c0,8.3-7,15-15.6,15c-8.5,0-15.5-6.7-15.5-15
	c0-1.5,0.3-2.9,0.7-4.3h-4.6v21c0,1.1,0.9,2,2,2h34.7c1,0,2-0.9,2-2V393.4z M-513.3,387.4c-5.5,0-10,4.5-10,9.7s4.6,9.7,10.1,9.7
	s10-4.2,10-9.7C-503.2,391.6-507.7,387.4-513.3,387.4L-513.3,387.4z"/>
</svg>

