<?xml version="1.0" encoding="utf-8"?>
<!-- Generator: Adobe Illustrator 19.1.0, SVG Export Plug-In . SVG Version: 6.00 Build 0)  -->
<!DOCTYPE svg PUBLIC "-//W3C//DTD SVG 1.1//EN" "http://www.w3.org/Graphics/SVG/1.1/DTD/svg11.dtd">
<svg version="1.1" id="Layer_1" xmlns="http://www.w3.org/2000/svg" xmlns:xlink="http://www.w3.org/1999/xlink" x="0px" y="0px"
	 viewBox="-407.1 255.1 150 55" style="enable-background:new -407.1 255.1 150 55;" xml:space="preserve">
<style type="text/css">
	.st0{fill:#FFFFFF;}
</style>
<g>
	<g>
		<path class="st0" d="M-260.5,280c-0.2-1.1-0.7-1.2-0.7-1.2c-1-0.2-0.9,1.1-0.9,1.1c0.2,4.5-0.4,10.1-5,12.4c-1,0.5-2,0.8-3.1,0.9
			c-0.4,0-1-0.1-1.4,0c-0.4-0.1-0.8-0.2-1.2-0.3c0.2-0.4,0.3-0.8,0.5-1.2c0.6-1.4,1-2.9,1.4-4.3c0.5-1.7,0.9-3.4,1.3-5.2
			c0.4-2,0.8-4.1,0.8-6.1c0-0.5,0-1.1-0.2-1.6c-0.4-1.4-1.4-2-2-2.3c-0.4-0.2-0.8-0.3-1.2-0.3c-3.8-0.1-6.1,3.6-6.1,3.6
			c-5.5,9-1.4,16.9-1.4,16.9c0.8,1.5,1.8,2.6,2.9,3.4c-1.5,1.9-3.7,3.1-6.3,1.2c-1.1-0.7-1.9-1.8-2.5-3c-0.4-0.9-0.9-2.3-1.3-4.1
			c1-1.3,1.9-3,2.6-5c0,0,3-8.7-0.3-12.3c0,0-0.8-1.2-2.6-0.7c-0.9,0.3-1.6,0.8-2.2,1.6c-1,1.5-2.8,5-3,11.4c0,0,0,3.2,1.2,6.8
			c-0.9,0.7-1.9,1.4-3.1,1.9c-0.6-2.2-0.8-4-0.8-4c-1.1-9.1,1.7-16.5,1.7-16.5c1.2-2.8,0.2-3.2,0.2-3.2c-0.6-0.8-3.4-2-3.4-2
			c-2-1.1-2.8,0.4-2.8,0.4c-1.4,2.7-3.4,5.5-6.1,7c-0.1,0.1-0.2,0.1-0.3,0.2s-0.2,0.1-0.4,0.2c-0.2-1.1-0.5-2.1-0.8-3.2
			c0,0-0.9-2.9-3.4-3.5s-5,1.3-5.1,3.9c0,1.3,0.3,3.3,2.3,4.9l0.1,0.1c0.3,0.2,2.1,1.5,4.6,1.7c0,0.3,0,0.6,0,0.9
			c0,0,0.1,2.8-0.4,5.1c-3.1,11.4-11.4,9-11.4,9c-0.3-0.1-0.6-0.2-0.8-0.3c1.6-4.3,3.4-10.3,4-15.8c0-0.4,0-0.7,0-1.1
			c0-0.8-0.1-1.5-0.5-2.2c-1.3-2.4-3.9-1.8-3.9-1.8c-7.6,1.9-8,13.2-8,13.2c-0.2,6,2.2,9.1,4.4,10.8c-0.3,0.6-0.5,1.3-0.8,1.9
			c-2.9,5.4-5.6,5.2-5.6,5.2c-3.3-0.2-4.9-4.7-5.7-10c0.8-0.8,1.5-1.8,2.1-2.9s1.1-2.3,1.6-3.5c1.5-3.9,2.6-7.9,3.1-12
			c0-0.1,0.1-1.1,0.2-1.8c0,0,0.5-5.2,0.5-5.7c0.1-1.5,0.1-3,0-4.4c-0.1-1.3-0.2-2.6-0.5-3.9c-0.3-1.4-0.8-3.2-2.1-4
			c-0.8-0.4-1.7-0.4-2.6-0.2c-2.2,0.6-3.7,2.2-4.8,4c-1.4,2.5-2.2,5.5-2.8,8.3c-0.6,3.2-1,6.4-1.3,9.6c-0.2,2.7-0.3,5.3-0.3,8
			c0,1.1,0,2.2,0,3.3c0.1,1.9,0.3,3.6,0.5,5.1c-0.6,0-1.2-0.2-1.9-0.4c-0.2-0.1-0.4-0.2-0.6-0.3c-2.1-1.8-2.3-5.2-2.1-7.7
			c0.1-1.7,0.3-3.5,0.7-5.2c0.1-0.8,0.3-1.6,0.5-2.4c0.2-0.8,0.5-1.5,0.5-2.3c0.1-0.8-0.3-1.4-0.8-1.9c-1.8-1.7-4.7-2.4-7.1-2.4
			c-2.6,0.1-5.5,1-7.6,2.7c-0.6,0.5-1.2,1.1-1.7,1.8c-2.6,3.3-3.6,7.6-2.9,11.7c0.1,0.7,0.4,1.4,0.7,2c0.6,1.4,1.5,2.7,2.7,3.7
			c1.6,1.3,3.6,1.8,5.6,1.7c0.9-0.1,1.7-0.2,2.5-0.4c0.8-0.2,1.5-0.4,2.5-1.2c-0.1,0,0.5,0.8,0.6,0.9c0.3,0.3,0.5,0.6,0.9,0.8
			c0.7,0.6,1.5,1.1,2.3,1.5c1.9,0.9,3.9,1.2,5.9,0.8c3.1,12.6,10.6,11.3,10.6,11.3c4.2,0,7.3-5.4,9.3-10.2c0.9,0.4,1.6,0.5,1.6,0.5
			c6.2,0.9,9.9-1.6,12.1-4.8c1.9-2.8,2.7-6,3.1-7.9l0,0c0.2-1,0.2-1.6,0.2-1.6l0,0c0.1-1.2,0.2-3,0-5c1.3-0.4,2.5-1,3.9-2
			c-1.4,8.3,0.7,16.1,0.7,16.1c1.8,6,5.1,8.4,5.1,8.4c3,2.3,6,2.5,7.1,2.4c0.4,0,0.7-0.2,1-0.5c0.5-0.7-0.1-1.4-0.2-1.5
			c-0.1-0.1-1.4-1-1.4-1c-2-1.2-3.3-3.8-4.2-6.2c0.6-0.2,1.8-0.8,3.3-1.8c1.3,2.6,3.3,5.1,6.8,6.3c0.1,0,0.2,0.1,0.3,0.1
			c0.7,0.3,4.9,1.2,8.3-3.1c2.3,1.2,6,0.7,6,0.7C-257.5,294.9-260.5,280-260.5,280z M-309.5,276c-0.4-0.1-0.7-0.3-1-0.4
			c-0.5-0.3-1-0.6-1.4-1c-0.2-0.2-0.3-0.4-0.4-0.6c-0.3-0.7-0.2-1.5,0.5-2c0.1-0.1,0.2-0.1,0.4-0.2c0.6-0.2,2.2-0.1,2.9,4.4
			C-308.6,276.2-309.4,276.1-309.5,276z M-353.1,290.6c-1.4,0.9-3.1,1.2-4.6,0.3c-0.6-0.4-1.2-1-1.6-1.6c-0.3-0.5-0.6-1-0.8-1.6
			c-0.1-0.4-0.2-0.8-0.3-1.2c-0.4-2.5-0.1-5.1,0.9-7.4c0.5-1.2,1.3-2.4,2.3-3.3c2.3-1.8,6.1-0.5,6.1-0.5S-353.8,283.5-353.1,290.6z
			 M-337.2,276c0.6-5,1.7-9.9,3.5-14.7c0.2-0.5,0.9-1.8,1.6-1.1c0.4,0.4,0.5,1.2,0.5,1.7c0.3,2.4,0.1,4.9-0.1,7.3
			c0,0.3-0.5,4.4-0.4,4.5c-0.3,2.3-1.7,11.7-5.2,17C-337.8,283.5-337.2,276-337.2,276z M-323.1,292.8c-2.6-3.1-1.7-8.3-1.7-8.3
			c1-4.7,3.6-6.9,3.6-6.9c1.4-0.8,1.8,0,1.8,1.2C-319.4,278.9-320,284.3-323.1,292.8z M-287.3,280.7c0,0,0.4-5.3,1.9-5.1
			c0,0,1.7,0,0.4,5.8v0.1c-0.1,0.4-0.6,3-2.2,5.8C-287.4,285.4-287.5,283.2-287.3,280.7z M-273.6,288.8L-273.6,288.8
			c-0.2,0.5-0.3,1-0.5,1.5c-0.2,0.5-0.3,1-0.5,1.4c-2.8-2.9-2-8.9-2-8.9c0.6-4,3.5-6.7,3.5-6.7c1.8-1.1,1.8,0.9,1.8,0.9v0.1
			c0.1,0.6-0.1,1.5-0.2,2.1c-0.4,2.3-0.9,4.5-1.4,6.8C-273.1,287.1-273.4,288-273.6,288.8z"/>
		<path class="st0" d="M-287.9,267.8c0.3,0.4,0.7,0.6,1.1,0.7c2.2,0.5,3.3-0.3,3.7-0.6c0.1-0.1,0.2-0.2,0.2-0.3c0.9-2,0.2-3.5,0-3.8
			l-0.1-0.1c-0.9-1.2-2.6-1-2.6-1c-2.1-0.1-2.8,1.6-2.9,2c0,0.1,0,0.1,0,0.2C-288.7,266.3-288.3,267.2-287.9,267.8z"/>
		<path class="st0" d="M-369.7,299.4c-1-17.4,4.8-27.9,4.8-27.9c2.3-5.1,6.5-9.3,6.5-9.3c0.5-0.5-0.4-1.3-0.7-1.6
			c-0.5-0.3-1.2-0.6-1.7-0.2c-1.4,1.1-4.5,5.1-4.5,5.1c-9.2,11.5-8.8,32.2-8.8,32.2c-4.6-9.3-5.3-20.7-5.3-20.7
			c-0.1-1.6,0-3.2,0-4.8c0-2.6,0.3-5.1,0.8-7.6c0.2-0.8,0.3-1.6,0.6-2.4c0.3-0.9,1.1-2.3,0.5-3.2c-1.1-1.9-4.6-2.3-4.6-2.3
			c-1.5-0.3-1.7,0.4-1.7,0.4l-0.9,2c-3.7,6.3-10.2,9.2-10.2,9.2c-3.7,2-7.1,1-8.2,0.4c-0.4-0.2-0.8,0-0.9,0.4
			c-0.1,0.5,0.3,0.9,0.3,0.9c1,1.5,5.4,1.5,5.4,1.5c6.6-0.2,12.1-5.9,12.1-5.9c-1.6,13.8-0.3,17.6-0.3,17.6
			c1.9,17,9.3,23.7,9.3,23.7c1.1,1.4,6.2,0.5,6.2,0.5c2.5-1,1.9-3.2,1.9-3.2L-369.7,299.4z"/>
	</g>
</g>
</svg>
