<?xml version="1.0" encoding="utf-8"?>
<!-- Generator: Adobe Illustrator 19.1.0, SVG Export Plug-In . SVG Version: 6.00 Build 0)  -->
<!DOCTYPE svg PUBLIC "-//W3C//DTD SVG 1.1//EN" "http://www.w3.org/Graphics/SVG/1.1/DTD/svg11.dtd">
<svg version="1.1" id="Layer_1" xmlns="http://www.w3.org/2000/svg" xmlns:xlink="http://www.w3.org/1999/xlink" x="0px" y="0px"
	 viewBox="0 0 150 70" style="enable-background:new 0 0 150 70;" xml:space="preserve">
<style type="text/css">
	.st0{fill:#FFFFFF;}
</style>
<g>
	<g>
		<path class="st0" d="M146.6,25.6c-0.2-1.1-0.7-1.2-0.7-1.2c-1-0.2-0.9,1.1-0.9,1.1c0.2,4.5-0.4,10.1-5,12.4c-1,0.5-2,0.8-3.1,0.9
			c-0.4,0-1-0.1-1.4,0c-0.4-0.1-0.8-0.2-1.2-0.3c0.2-0.4,0.3-0.8,0.5-1.2c0.6-1.4,1-2.9,1.4-4.3c0.5-1.7,0.9-3.4,1.3-5.2
			c0.4-2,0.8-4.1,0.8-6.1c0-0.5,0-1.1-0.2-1.6c-0.4-1.4-1.4-2-2-2.3c-0.4-0.2-0.8-0.3-1.2-0.3c-3.8-0.1-6.1,3.6-6.1,3.6
			c-5.5,9-1.4,16.9-1.4,16.9c0.8,1.5,1.8,2.6,2.9,3.4c-1.5,1.9-3.7,3.1-6.3,1.2c-1.1-0.7-1.9-1.8-2.5-3c-0.4-0.9-0.9-2.3-1.3-4.1
			c1-1.3,1.9-3,2.6-5c0,0,3-8.7-0.3-12.3c0,0-0.8-1.2-2.6-0.7c-0.9,0.3-1.6,0.8-2.2,1.6c-1,1.5-2.8,5-3,11.4c0,0,0,3.2,1.2,6.8
			c-0.9,0.7-1.9,1.4-3.1,1.9c-0.6-2.2-0.8-4-0.8-4c-1.1-9.1,1.7-16.5,1.7-16.5c1.2-2.8,0.2-3.2,0.2-3.2c-0.6-0.8-3.4-2-3.4-2
			c-2-1.1-2.8,0.4-2.8,0.4c-1.4,2.7-3.4,5.5-6.1,7c-0.1,0.1-0.2,0.1-0.3,0.2c-0.1,0.1-0.2,0.1-0.4,0.2c-0.2-1.1-0.5-2.1-0.8-3.2
			c0,0-0.9-2.9-3.4-3.5c-2.5-0.6-5,1.3-5.1,3.9c0,1.3,0.3,3.3,2.3,4.9c0,0,0.1,0.1,0.1,0.1c0.3,0.2,2.1,1.5,4.6,1.7
			c0,0.3,0,0.6,0,0.9c0,0,0.1,2.8-0.4,5.1c-3.1,11.4-11.4,9-11.4,9c-0.3-0.1-0.6-0.2-0.8-0.3c1.6-4.3,3.4-10.3,4-15.8
			c0-0.4,0-0.7,0-1.1c0-0.8-0.1-1.5-0.5-2.2c-1.3-2.4-3.9-1.8-3.9-1.8c-7.6,1.9-8,13.2-8,13.2c-0.2,6,2.2,9.1,4.4,10.8
			c-0.3,0.6-0.5,1.3-0.8,1.9c-2.9,5.4-5.6,5.2-5.6,5.2c-3.3-0.2-4.9-4.7-5.7-10c0.8-0.8,1.5-1.8,2.1-2.9c0.6-1.1,1.1-2.3,1.6-3.5
			c1.5-3.9,2.6-7.9,3.1-12c0-0.1,0.1-1.1,0.2-1.8c0,0,0.5-5.2,0.5-5.7c0.1-1.5,0.1-3,0-4.4c-0.1-1.3-0.2-2.6-0.5-3.9
			c-0.3-1.4-0.8-3.2-2.1-4c-0.8-0.4-1.7-0.4-2.6-0.2c-2.2,0.6-3.7,2.2-4.8,4c-1.4,2.5-2.2,5.5-2.8,8.3c-0.6,3.2-1,6.4-1.3,9.6
			c-0.2,2.7-0.3,5.3-0.3,8c0,1.1,0,2.2,0,3.3c0.1,1.9,0.3,3.6,0.5,5.1c-0.6,0-1.2-0.2-1.9-0.4c-0.2-0.1-0.4-0.2-0.6-0.3
			c-2.1-1.8-2.3-5.2-2.1-7.7c0.1-1.7,0.3-3.5,0.7-5.2c0.1-0.8,0.3-1.6,0.5-2.4c0.2-0.8,0.5-1.5,0.5-2.3c0.1-0.8-0.3-1.4-0.8-1.9
			c-1.8-1.7-4.7-2.4-7.1-2.4c-2.6,0.1-5.5,1-7.6,2.7c-0.6,0.5-1.2,1.1-1.7,1.8c-2.6,3.3-3.6,7.6-2.9,11.7c0.1,0.7,0.4,1.4,0.7,2
			c0.6,1.4,1.5,2.7,2.7,3.7c1.6,1.3,3.6,1.8,5.6,1.7c0.9-0.1,1.7-0.2,2.5-0.4c0.8-0.2,1.5-0.4,2.5-1.2c-0.1,0,0.5,0.8,0.6,0.9
			c0.3,0.3,0.5,0.6,0.9,0.8c0.7,0.6,1.5,1.1,2.3,1.5c1.9,0.9,3.9,1.2,5.9,0.8c3.1,12.6,10.6,11.3,10.6,11.3c4.2,0,7.3-5.4,9.3-10.2
			c0.9,0.4,1.6,0.5,1.6,0.5c6.2,0.9,9.9-1.6,12.1-4.8c1.9-2.8,2.7-6,3.1-7.9c0,0,0,0,0,0c0.2-1,0.2-1.6,0.2-1.6h0c0.1-1.2,0.2-3,0-5
			c1.3-0.4,2.5-1,3.9-2c-1.4,8.3,0.7,16.1,0.7,16.1c1.8,6,5.1,8.4,5.1,8.4c3,2.3,6,2.5,7.1,2.4c0.4,0,0.7-0.2,1-0.5
			c0.5-0.7-0.1-1.4-0.2-1.5c-0.1-0.1-1.4-1-1.4-1c-2-1.2-3.3-3.8-4.2-6.2c0.6-0.2,1.8-0.8,3.3-1.8c1.3,2.6,3.3,5.1,6.8,6.3
			c0.1,0,0.2,0.1,0.3,0.1c0.7,0.3,4.9,1.2,8.3-3.1c2.3,1.2,6,0.7,6,0.7C149.6,40.5,146.6,25.6,146.6,25.6z M97.6,21.6
			c-0.4-0.1-0.7-0.3-1-0.4c-0.5-0.3-1-0.6-1.4-1c-0.2-0.2-0.3-0.4-0.4-0.6c-0.3-0.7-0.2-1.5,0.5-2c0.1-0.1,0.2-0.1,0.4-0.2
			c0.6-0.2,2.2-0.1,2.9,4.4C98.5,21.8,97.7,21.7,97.6,21.6z M54,36.2c-1.4,0.9-3.1,1.2-4.6,0.3c-0.6-0.4-1.2-1-1.6-1.6
			c-0.3-0.5-0.6-1-0.8-1.6c-0.1-0.4-0.2-0.8-0.3-1.2c-0.4-2.5-0.1-5.1,0.9-7.4c0.5-1.2,1.3-2.4,2.3-3.3c2.3-1.8,6.1-0.5,6.1-0.5
			S53.3,29.1,54,36.2z M69.9,21.6c0.6-5,1.7-9.9,3.5-14.7c0.2-0.5,0.9-1.8,1.6-1.1c0.4,0.4,0.5,1.2,0.5,1.7c0.3,2.4,0.1,4.9-0.1,7.3
			c0,0.3-0.5,4.4-0.4,4.5c-0.3,2.3-1.7,11.7-5.2,17C69.3,29.1,69.9,21.6,69.9,21.6z M84,38.4c-2.6-3.1-1.7-8.3-1.7-8.3
			c1-4.7,3.6-6.9,3.6-6.9c1.4-0.8,1.8,0,1.8,1.2C87.7,24.5,87.1,29.9,84,38.4z M119.8,26.3c0,0,0.4-5.3,1.9-5.1c0,0,1.7,0,0.4,5.8
			c0,0,0,0.1,0,0.1c-0.1,0.4-0.6,3-2.2,5.8C119.7,31,119.6,28.8,119.8,26.3z M133.5,34.4C133.5,34.4,133.5,34.4,133.5,34.4
			c-0.2,0.5-0.3,1-0.5,1.5c-0.2,0.5-0.3,1-0.5,1.4c-2.8-2.9-2-8.9-2-8.9c0.6-4,3.5-6.7,3.5-6.7c1.8-1.1,1.8,0.9,1.8,0.9
			c0,0,0,0.1,0,0.1c0.1,0.6-0.1,1.5-0.2,2.1c-0.4,2.3-0.9,4.5-1.4,6.8C134,32.7,133.7,33.6,133.5,34.4z"/>
		<path class="st0" d="M119.2,13.4c0.3,0.4,0.7,0.6,1.1,0.7c2.2,0.5,3.3-0.3,3.7-0.6c0.1-0.1,0.2-0.2,0.2-0.3c0.9-2,0.2-3.5,0-3.8
			c0,0-0.1-0.1-0.1-0.1c-0.9-1.2-2.6-1-2.6-1c-2.1-0.1-2.8,1.6-2.9,2c0,0.1,0,0.1,0,0.2C118.4,11.9,118.8,12.8,119.2,13.4z"/>
		<path class="st0" d="M37.4,45c-1-17.4,4.8-27.9,4.8-27.9c2.3-5.1,6.5-9.3,6.5-9.3c0.5-0.5-0.4-1.3-0.7-1.6
			c-0.5-0.3-1.2-0.6-1.7-0.2c-1.4,1.1-4.5,5.1-4.5,5.1c-9.2,11.5-8.8,32.2-8.8,32.2c-4.6-9.3-5.3-20.7-5.3-20.7
			c-0.1-1.6,0-3.2,0-4.8c0-2.6,0.3-5.1,0.8-7.6c0.2-0.8,0.3-1.6,0.6-2.4c0.3-0.9,1.1-2.3,0.5-3.2C28.5,2.7,25,2.3,25,2.3
			c-1.5-0.3-1.7,0.4-1.7,0.4l-0.9,2c-3.7,6.3-10.2,9.2-10.2,9.2c-3.7,2-7.1,1-8.2,0.4c-0.4-0.2-0.8,0-0.9,0.4
			c-0.1,0.5,0.3,0.9,0.3,0.9c1,1.5,5.4,1.5,5.4,1.5c6.6-0.2,12.1-5.9,12.1-5.9c-1.6,13.8-0.3,17.6-0.3,17.6
			c1.9,17,9.3,23.7,9.3,23.7c1.1,1.4,6.2,0.5,6.2,0.5c2.5-1,1.9-3.2,1.9-3.2L37.4,45z"/>
	</g>
	<g>
		<path class="st0" d="M50.2,66.1c0,1.6-1.1,2.3-2.9,2.3h-2.2v-8.1h1.8c1.8,0,2.9,0.7,2.9,2c0,1-0.6,1.6-1.5,1.8
			C49.3,64.1,50.2,64.7,50.2,66.1z M45.8,63.8h1.6c1,0,1.7-0.5,1.7-1.5c0-1.1-0.8-1.5-2.1-1.5h-1.2V63.8z M49.5,66.1
			c0-1.2-0.9-1.7-2-1.7h-1.7v3.4h1.5C48.6,67.7,49.5,67.3,49.5,66.1z"/>
		<path class="st0" d="M58.3,64.3c0,2.7-1.3,4.2-3.3,4.2c-2,0-3.3-1.5-3.3-4.2c0-2.7,1.4-4.2,3.3-4.2C57,60.1,58.3,61.5,58.3,64.3z
			 M52.4,64.3c0,2.4,1.1,3.6,2.6,3.6c1.6,0,2.6-1.1,2.6-3.6c0-2.5-1-3.6-2.6-3.6C53.5,60.7,52.4,61.8,52.4,64.3z"/>
		<path class="st0" d="M60.9,64.7v3.6h-0.7v-8.1h2c2,0,2.9,0.8,2.9,2.2c0,1.2-0.7,1.8-1.8,2.1l2.2,3.8h-0.9l-2.1-3.6H60.9z
			 M64.3,62.4c0-1.1-0.6-1.6-2.2-1.6h-1.2v3.3h1.4C63.6,64.1,64.3,63.6,64.3,62.4z"/>
		<path class="st0" d="M72.6,64.2c0,3.4-2,4.1-3.7,4.1h-1.7v-8.1h1.6C70.7,60.2,72.6,60.9,72.6,64.2z M67.9,67.7H69
			c1.4,0,2.9-0.6,2.9-3.5c0-3-1.5-3.4-2.9-3.4h-1V67.7z"/>
		<path class="st0" d="M75,60.8v3h2.9v0.6H75v3.3h3.5v0.6h-4.2v-8.1h4.1l-0.1,0.6H75z"/>
		<path class="st0" d="M85,67.7l-0.1,0.6h-4v-8.1h0.7v7.5H85z"/>
		<path class="st0" d="M87.4,60.8v3h2.9v0.6h-2.9v3.3h3.5v0.6h-4.2v-8.1h4.1l-0.1,0.6H87.4z"/>
		<path class="st0" d="M93.7,66.1L93,68.3h-0.7l2.7-8.1h0.9l2.7,8.1h-0.7l-0.7-2.2H93.7z M95.5,60.8l-1.5,4.7h3L95.5,60.8z"/>
		<path class="st0" d="M102.3,68.5c-1.8,0-2.7-1.1-2.7-2.7v-5.6h0.7v5.5c0,1.3,0.6,2.1,2,2.1c1.4,0,1.9-0.8,1.9-2.1v-5.5h0.7v5.6
			C104.9,67.4,104,68.5,102.3,68.5z"/>
	</g>
</g>
</svg>
