<?xml version="1.0" encoding="utf-8"?>
<!-- Generator: Adobe Illustrator 19.1.0, SVG Export Plug-In . SVG Version: 6.00 Build 0)  -->
<!DOCTYPE svg PUBLIC "-//W3C//DTD SVG 1.1//EN" "http://www.w3.org/Graphics/SVG/1.1/DTD/svg11.dtd">
<svg version="1.1" id="Layer_1" xmlns="http://www.w3.org/2000/svg" xmlns:xlink="http://www.w3.org/1999/xlink" x="0px" y="0px"
	 viewBox="13 -12.8 75.8 75.8" style="enable-background:new 13 -12.8 75.8 75.8;" xml:space="preserve">
<style type="text/css">
	.st0{fill:#5E5E5E;}
</style>
<path class="st0" d="M88.8,63H13v-75.8h75.8V63z M52.9,26.2L70.3,8.8c0.6-0.5,0.6-1.4,0-2c-0.5-0.6-1.4-0.6-2,0L50.9,24.2L33.5,6.8
	c-0.5-0.6-1.4-0.6-2,0c-0.6,0.5-0.6,1.4,0,2l17.4,17.4L31.5,43.6c-0.6,0.5-0.6,1.4,0,2c0.3,0.3,0.6,0.4,1,0.4s0.7-0.1,1-0.4
	l17.4-17.4l17.4,17.4c0.3,0.3,0.6,0.4,1,0.4s0.7-0.1,1-0.4c0.6-0.5,0.6-1.4,0-2L52.9,26.2z"/>
</svg>
