<?xml version="1.0" encoding="utf-8"?>
<!-- Generator: Adobe Illustrator 19.1.0, SVG Export Plug-In . SVG Version: 6.00 Build 0)  -->
<!DOCTYPE svg PUBLIC "-//W3C//DTD SVG 1.1//EN" "http://www.w3.org/Graphics/SVG/1.1/DTD/svg11.dtd">
<svg version="1.1" id="Layer_1" xmlns="http://www.w3.org/2000/svg" xmlns:xlink="http://www.w3.org/1999/xlink" x="0px" y="0px"
	 viewBox="-266.6 359.6 75 75" style="enable-background:new -266.6 359.6 75 75;" xml:space="preserve">
<style type="text/css">
	.st0{fill:#5E5E5E;}
</style>
<path class="st0" d="M-191.6,434.6h-75v-75h75V434.6z M-227.1,398.2l17.2-17.2c0.6-0.5,0.6-1.4,0-2c-0.5-0.6-1.4-0.6-2,0l-17.2,17.2
	l-17.2-17.2c-0.5-0.6-1.4-0.6-2,0c-0.6,0.5-0.6,1.4,0,2l17.2,17.2l-17.2,17.2c-0.6,0.5-0.6,1.4,0,2c0.3,0.3,0.6,0.4,1,0.4
	c0.4,0,0.7-0.1,1-0.4l17.2-17.2l17.2,17.2c0.3,0.3,0.6,0.4,1,0.4c0.4,0,0.7-0.1,1-0.4c0.6-0.5,0.6-1.4,0-2L-227.1,398.2z"/>
</svg>
