<?xml version="1.0" encoding="utf-8"?>
<!-- Generator: Adobe Illustrator 19.1.0, SVG Export Plug-In . SVG Version: 6.00 Build 0)  -->
<!DOCTYPE svg PUBLIC "-//W3C//DTD SVG 1.1//EN" "http://www.w3.org/Graphics/SVG/1.1/DTD/svg11.dtd">
<svg version="1.1" id="Layer_1" xmlns="http://www.w3.org/2000/svg" xmlns:xlink="http://www.w3.org/1999/xlink" x="0px" y="0px"
	 viewBox="-581 387 40 20" style="enable-background:new -581 387 40 20;" xml:space="preserve">
<style type="text/css">
	.st0{fill:#5E5E5E;}
</style>
<path class="st0" d="M-542.5,390h-36.9c-0.8,0-1.5-0.7-1.5-1.5s0.7-1.5,1.5-1.5h36.9c0.8,0,1.5,0.7,1.5,1.5S-541.7,390-542.5,390z"
	/>
<path class="st0" d="M-542.6,407h-36.9c-0.8,0-1.5-0.7-1.5-1.5s0.7-1.5,1.5-1.5h36.9c0.8,0,1.5,0.7,1.5,1.5S-541.8,407-542.6,407z"
	/>
<path class="st0" d="M-542.6,398.5h-36.9c-0.8,0-1.5-0.7-1.5-1.5s0.7-1.5,1.5-1.5h36.9c0.8,0,1.5,0.7,1.5,1.5
	S-541.7,398.5-542.6,398.5z"/>
</svg>
