<?xml version="1.0" encoding="utf-8"?>
<!-- Generator: Adobe Illustrator 19.1.0, SVG Export Plug-In . SVG Version: 6.00 Build 0)  -->
<!DOCTYPE svg PUBLIC "-//W3C//DTD SVG 1.1//EN" "http://www.w3.org/Graphics/SVG/1.1/DTD/svg11.dtd">
<svg version="1.1" id="Layer_1" xmlns="http://www.w3.org/2000/svg" xmlns:xlink="http://www.w3.org/1999/xlink" x="0px" y="0px"
	 width="40px" height="20px" viewBox="-24 26 40 20" style="enable-background:new -24 26 40 20;" xml:space="preserve">
<style type="text/css">
	.st0{fill:#5E5E5E;}
</style>
<path class="st0" d="M14.5,29h-36.9c-0.8,0-1.5-0.7-1.5-1.5s0.7-1.5,1.5-1.5h36.9c0.8,0,1.5,0.7,1.5,1.5S15.2,29,14.5,29z"/>
<path class="st0" d="M14.5,46h-36.9c-0.8,0-1.5-0.7-1.5-1.5s0.7-1.5,1.5-1.5h36.9c0.8,0,1.5,0.7,1.5,1.5S15.3,46,14.5,46z"/>
<path class="st0" d="M14.4,37.5h-36.9c-0.8,0-1.5-0.7-1.5-1.5s0.7-1.5,1.5-1.5h36.9c0.8,0,1.5,0.7,1.5,1.5S15.3,37.5,14.4,37.5z"/>
</svg>
