<svg xmlns="http://www.w3.org/2000/svg" viewBox="-280 372 50 50">
  <path d="M-230.2 381.5c-1.8.8-3.8 1.4-5.8 1.6 2.1-1.3 3.7-3.2 4.5-5.6-2 1.2-4.1 2-6.5 2.5-1.9-2-4.5-3.2-7.4-3.2-5.6 0-10.2 4.5-10.2 10.2 0 .8.1 1.6.3 2.3-8.4-.4-15.9-4.5-20.9-10.6-.9 1.5-1.4 3.2-1.4 5.1 0 3.5 1.8 6.6 4.5 8.5-1.7-.1-3.2-.5-4.6-1.3v.1c0 4.9 3.5 9 8.1 10-.9.2-1.7.4-2.7.4-.7 0-1.3-.1-1.9-.2 1.3 4 5 7 9.5 7.1-3.5 2.7-7.9 4.3-12.6 4.3-.8 0-1.6 0-2.4-.1 4.5 2.9 9.8 4.6 15.6 4.6 18.7 0 28.9-15.5 28.9-28.9V387c1.8-1.7 3.6-3.5 5-5.5z" class="st1"/>
</svg>
