<svg version="1.1" id="Twitter2" xmlns="http://www.w3.org/2000/svg" xmlns:xlink="http://www.w3.org/1999/xlink" x="0px" y="0px"
             viewBox="281 372 50 50" width="50" height="50" style="enable-background:new 281 372 50 50;" xml:space="preserve">
        <path class="st1" d="M331,383.7c-1.8,0.8-3.8,1.4-5.8,1.6c2.1-1.3,3.7-3.2,4.5-5.6c-2,1.2-4.1,2-6.5,2.5c-1.9-2-4.5-3.2-7.4-3.2
            c-5.6,0-10.2,4.5-10.2,10.2c0,0.8,0.1,1.6,0.3,2.3c-8.4-0.4-15.9-4.5-20.9-10.6c-0.9,1.5-1.4,3.2-1.4,5.1c0,3.5,1.8,6.6,4.5,8.5
            c-1.7-0.1-3.2-0.5-4.6-1.3v0.1c0,4.9,3.5,9,8.1,10c-0.9,0.2-1.7,0.4-2.7,0.4c-0.7,0-1.3-0.1-1.9-0.2c1.3,4,5,7,9.5,7.1
            c-3.5,2.7-7.9,4.3-12.6,4.3c-0.8,0-1.6,0-2.4-0.1c4.5,2.9,9.8,4.6,15.6,4.6c18.7,0,28.9-15.5,28.9-28.9l0-1.3
            C327.9,387.5,329.6,385.7,331,383.7L331,383.7z"/>
                            </svg>